<svg width="26" height="25" viewBox="0 0 26 25" fill="none" xmlns="http://www.w3.org/2000/svg">
<path d="M24.031 0.161133H1.79146C1.02896 0.161133 0.411255 0.754133 0.411255 1.48613V22.8371C0.411255 23.5681 1.02896 24.1611 1.79146 24.1611H13.7654V14.8671H10.5071V11.2451H13.7654V8.57413C13.7654 5.47413 15.7373 3.78613 18.6185 3.78613C19.9988 3.78613 21.1842 3.88513 21.53 3.92913V7.16913L19.5321 7.17013C17.9654 7.17013 17.6623 7.88513 17.6623 8.93313V11.2461H21.3988L20.9123 14.8681H17.6623V24.1611H24.0331C24.7935 24.1611 25.4113 23.5681 25.4113 22.8361V1.48613C25.4113 0.754133 24.7935 0.161133 24.031 0.161133V0.161133Z" fill="#FEF9EC"/>
</svg>
