<?xml version="1.0" encoding="UTF-8"?>
<svg xmlns="http://www.w3.org/2000/svg" version="1.1" viewBox="0 0 640 442">
  <defs>
    <style>
      .cls-1 {
        fill: #fff;
      }
    </style>
  </defs>
  <!-- Generator: Adobe Illustrator 28.6.0, SVG Export Plug-In . SVG Version: 1.2.0 Build 709)  -->
  <g>
    <g id="Layer_1">
      <g>
        <path class="cls-1" d="M97,138.2v-71.7h33.8v184.6h-33.8v-89.1h-24.8v89.1h-33.8V66.4h33.8v71.7h24.8Z"/>
        <path class="cls-1" d="M214.4,66.4l28.5,184.6h-34.8l-4.2-40.1h-23.7l-4.2,40.1h-34.8l28.5-184.6h44.8ZM182.7,187.2h18.5l-3.7-35.1-4-51.7h-3.2l-4,51.7-3.7,35.1Z"/>
        <path class="cls-1" d="M343.2,251l-33.5.3-5.8-67.8c-.8-8.2-4.7-13.2-12.9-13.2h-4.2v80.7h-33.8V66.4h42.5c28.5,0,48,17.4,48,49s-15,40.1-29.3,41.4v3.2c10,1.1,21.1,6.3,23.2,29.3l5.8,61.7ZM293.4,146.6c10.8,0,14.8-7.9,14.8-18.7v-19c0-10.8-4-18.7-14.8-18.7h-6.6v56.4h6.6Z"/>
        <path class="cls-1" d="M448.6,251l-33.5.3-5.8-67.8c-.8-8.2-4.7-13.2-12.9-13.2h-4.2v80.7h-33.8V66.4h42.5c28.5,0,48,17.4,48,49s-15,40.1-29.3,41.4v3.2c10,1.1,21.1,6.3,23.2,29.3l5.8,61.7ZM398.7,146.6c10.8,0,14.8-7.9,14.8-18.7v-19c0-10.8-4-18.7-14.8-18.7h-6.6v56.4h6.6Z"/>
        <path class="cls-1" d="M497.5,66.4v184.6h-33.8V66.4h33.8Z"/>
        <path class="cls-1" d="M600.2,127.4h-33.5v-20.3c0-12.4-4-19.5-12.4-19.5s-11.1,6.6-11.1,14.5,3.7,14,15,29l24.8,33.2c14.8,19.8,18.7,29,18.7,46.1,0,25.3-20.6,43.2-45.4,43.2s-46.4-13.7-46.4-50.6v-17.9h33.5v23.7c0,15,5.3,21.1,13.2,21.1s12.7-6.1,12.7-15.3-2.1-14.5-13.7-29.8l-24.8-32.7c-15-20-18.7-30.6-18.7-48s15-40.3,43.5-40.3,44.6,18.2,44.6,48v15.6Z"/>
        <path class="cls-1" d="M207.6,378.2l-12.7-62.8-12.8,62.8h-32.5l-18.8-94.5h27l11.1,70.3,14.3-70.3h27l14.4,70,11.1-70h23.1l-18.6,94.5h-32.5Z"/>
        <path class="cls-1" d="M309,340.7l-10.5-35.9-10.4,35.9h20.9ZM319.8,378.2l-5.7-19.7h-31.3l-5.7,19.7h-23.3l30.5-94.5h32l30.5,94.5h-27Z"/>
        <path class="cls-1" d="M358,378.2v-94.5h25.9v74.5h41v20h-66.9Z"/>
        <path class="cls-1" d="M437,378.2v-19.7l42.6-54.8h-41.3v-20h71.5v19.7l-42.5,54.8h42.8v20h-73.1Z"/>
      </g>
    </g>
  </g>
</svg>