<svg width="28" height="27" viewBox="0 0 28 27" fill="none" xmlns="http://www.w3.org/2000/svg">
<path d="M13.9112 2.50352C17.5159 2.50352 17.9428 2.51673 19.3664 2.57928C20.6826 2.63712 21.3974 2.84891 21.8732 3.02689C22.5033 3.26271 22.953 3.54447 23.4254 3.99936C23.8978 4.45424 24.1904 4.88735 24.4352 5.4941C24.6201 5.95224 24.84 6.64058 24.9001 7.90802C24.9651 9.27887 24.9788 9.68999 24.9788 13.1612C24.9788 16.6323 24.9651 17.0434 24.9001 18.4142C24.84 19.6817 24.6201 20.3701 24.4352 20.8282C24.1904 21.435 23.8978 21.8681 23.4254 22.323C22.953 22.7778 22.5033 23.0596 21.8732 23.2954C21.3974 23.4734 20.6826 23.6852 19.3664 23.743C17.9431 23.8056 17.5161 23.8188 13.9112 23.8188C10.3063 23.8188 9.8794 23.8056 8.4561 23.743C7.13986 23.6852 6.42505 23.4734 5.94934 23.2954C5.3192 23.0596 4.86943 22.7778 4.39705 22.323C3.92467 21.8681 3.63207 21.435 3.38723 20.8282C3.20235 20.3701 2.98242 19.6817 2.92235 18.4143C2.8574 17.0435 2.84368 16.6323 2.84368 13.1612C2.84368 9.68999 2.8574 9.27887 2.92235 7.90807C2.98242 6.64058 3.20235 5.95224 3.38723 5.4941C3.63207 4.88735 3.92467 4.45424 4.39705 3.99936C4.86943 3.54447 5.3192 3.26271 5.94934 3.02689C6.42505 2.84891 7.13986 2.63712 8.45604 2.57928C9.87962 2.51673 10.3066 2.50352 13.9112 2.50352ZM13.9112 0.161133C10.2448 0.161133 9.78514 0.176098 8.34522 0.239364C6.90825 0.302527 5.92694 0.522255 5.06819 0.843642C4.18044 1.17587 3.42758 1.62038 2.67708 2.34309C1.92657 3.0658 1.46496 3.79077 1.11996 4.64564C0.786212 5.47259 0.558033 6.41755 0.492441 7.8013C0.426742 9.18784 0.411255 9.63055 0.411255 13.1612C0.411255 16.6918 0.426742 17.1345 0.492441 18.521C0.558033 19.9048 0.786212 20.8497 1.11996 21.6767C1.46496 22.5315 1.92657 23.2565 2.67708 23.9792C3.42758 24.7019 4.18044 25.1465 5.06819 25.4787C5.92694 25.8001 6.90825 26.0198 8.34522 26.083C9.78514 26.1462 10.2448 26.1611 13.9112 26.1611C17.5776 26.1611 18.0374 26.1462 19.4772 26.083C20.9142 26.0198 21.8955 25.8001 22.7543 25.4787C23.642 25.1465 24.3949 24.7019 25.1454 23.9792C25.8959 23.2565 26.3575 22.5315 26.7025 21.6767C27.0362 20.8497 27.2644 19.9048 27.33 18.521C27.3957 17.1345 27.4113 16.6918 27.4113 13.1612C27.4113 9.63055 27.3957 9.18784 27.33 7.8013C27.2644 6.41755 27.0362 5.47259 26.7025 4.64564C26.3575 3.79077 25.8959 3.0658 25.1454 2.34309C24.3949 1.62038 23.642 1.17587 22.7543 0.843642C21.8955 0.522255 20.9142 0.302527 19.4772 0.239364C18.0374 0.176098 17.5776 0.161133 13.9112 0.161133ZM13.9112 6.48546C10.0826 6.48546 6.97877 9.47429 6.97877 13.1612C6.97877 16.848 10.0826 19.8369 13.9112 19.8369C17.7399 19.8369 20.8437 16.848 20.8437 13.1612C20.8437 9.47429 17.7399 6.48546 13.9112 6.48546ZM13.9112 17.4945C11.426 17.4945 9.4112 15.5544 9.4112 13.1612C9.4112 10.7679 11.426 8.8278 13.9112 8.8278C16.3965 8.8278 18.4113 10.7679 18.4113 13.1612C18.4113 15.5544 16.3965 17.4945 13.9112 17.4945ZM22.7375 6.22172C22.7375 7.08329 22.0123 7.78174 21.1176 7.78174C20.2229 7.78174 19.4975 7.08329 19.4975 6.22172C19.4975 5.36014 20.2229 4.66174 21.1176 4.66174C22.0123 4.66174 22.7375 5.36014 22.7375 6.22172Z" fill="#FEF9EC"/>
</svg>
