<svg width="27" height="22" viewBox="0 0 27 22" fill="none" xmlns="http://www.w3.org/2000/svg">
<path d="M8.58773 21.4339C18.3991 21.4339 23.7655 13.2489 23.7655 6.15094C23.7655 5.91846 23.7655 5.68703 23.7499 5.45664C24.7939 4.69628 25.6951 3.75481 26.4113 2.67631C25.4377 3.11069 24.4049 3.39556 23.3474 3.52141C24.461 2.85013 25.2944 1.79433 25.6926 0.550484C24.6455 1.17614 23.4999 1.61708 22.3053 1.85426C21.5011 0.993122 20.4373 0.422901 19.2788 0.231833C18.1203 0.0407651 16.9315 0.239502 15.8964 0.79729C14.8613 1.35508 14.0377 2.24082 13.5529 3.31745C13.0681 4.39408 12.9493 5.60158 13.2147 6.75308C11.0939 6.64603 9.01912 6.09107 7.12512 5.12425C5.23112 4.15743 3.56021 2.80035 2.22086 1.14111C1.53871 2.32357 1.32978 3.72337 1.63661 5.0555C1.94344 6.38763 2.74296 7.55192 3.87237 8.31133C3.02347 8.28599 2.19307 8.0554 1.45125 7.63902C1.45125 7.66101 1.45125 7.68405 1.45125 7.70709C1.45159 8.94721 1.87793 10.149 2.65795 11.1087C3.43797 12.0684 4.52365 12.7269 5.73085 12.9724C4.94552 13.1881 4.12154 13.2196 3.32221 13.0646C3.66308 14.1319 4.32671 15.0652 5.22029 15.734C6.11386 16.4028 7.19269 16.7737 8.3059 16.7947C6.41698 18.2896 4.08356 19.101 1.68109 19.0986C1.25667 19.0978 0.832667 19.0719 0.411255 19.0211C2.85072 20.5974 5.68916 21.4336 8.58773 21.4297" fill="#FEF9EC"/>
</svg>
