<?xml version="1.0" encoding="UTF-8"?>
<svg xmlns="http://www.w3.org/2000/svg" version="1.1" viewBox="0 0 600 400">
  <defs>
    <style>
      .cls-1 {
        fill: #164fd7;
      }
    </style>
  </defs>
  <!-- Generator: Adobe Illustrator 28.6.0, SVG Export Plug-In . SVG Version: 1.2.0 Build 709)  -->
  <g>
    <g id="Layer_1">
      <g id="Layer_1-2" data-name="Layer_1">
        <g id="Layer_1-2">
          <g>
            <path class="cls-1" d="M185.564,187.877h21.045l4.037,36.117h27.618l-20.62-147.717h-39.116l-20.621,147.717h23.62l4.037-36.117ZM196.524,97.647l7.917,70.86h-16.715l7.917-70.86h.881ZM273.007,158.259h5.374c6.748,0,10.497,2.999,10.747,14.497l.75,28.118c.25,7.249,1,14.997,2.125,23.12h26.869c-1.125-7.748-1.875-14.621-2.375-23.619l-1.5-26.37c-.868-14.559-4.742-22.201-15.621-26.025,14.559-4.337,18.746-13.86,18.746-28.588v-4.249c0-25.494-10.748-38.866-40.491-38.866h-31.493v147.717h26.869v-65.735h0ZM291.253,112.644v9.248c0,13.372-3.624,16.996-13.622,16.996h-4.624v-43.24h4.624c9.998,0,13.622,3.624,13.622,16.996ZM123.165,223.994v-65.735h-21.495v65.735h-26.869V76.277h26.869v62.611h21.495v-62.611h26.869v147.717h-26.869,0ZM442.969,223.994h-26.869V76.277h26.869v147.717h0ZM525.201,187.127v4.624c0,20.871-14.372,34.743-34.868,34.743-23.369,0-36.116-12.747-36.116-35.242v-18.496h26.619v20.12c0,9.748,3.124,13.622,8.748,13.622s8.748-3.874,8.748-13.622v-1.874c0-5.624-2.5-11.123-9.623-19.996l-17.871-22.37c-10.748-13.372-15.997-25.744-15.997-35.492v-3.374c0-20.871,13.872-34.743,34.243-34.743,22.995,0,35.492,14.747,35.492,35.867v14.122h-26.619v-16.371c0-9.748-2.5-13.622-8.123-13.622s-8.124,3.874-8.124,13.622v.625c0,5.249,2.25,10.747,9.873,20.37l17.871,22.37c10.998,13.747,15.747,25.12,15.747,35.117h0ZM357.988,158.259h5.374c6.748,0,10.497,2.999,10.747,14.497l.75,28.118c.25,7.249,1,14.997,2.125,23.12h26.869c-1.125-7.748-1.875-14.621-2.375-23.619l-1.499-26.37c-.869-14.559-4.743-22.201-15.622-26.025,14.559-4.337,18.746-13.86,18.746-28.588v-4.249c0-25.494-10.748-38.866-40.491-38.866h-31.493v147.717h26.869v-65.735h0ZM376.234,112.644v9.248c0,13.372-3.624,16.996-13.622,16.996h-4.624v-43.24h4.624c9.998,0,13.622,3.624,13.622,16.996Z"/>
            <path class="cls-1" d="M272.133,243.615l-23.995,81.357h19.871l4.411-17.371h23.92l4.411,17.371h23.87l-23.995-81.357h-28.493ZM276.419,291.855l7.711-30.369h.5l7.711,30.369h-15.922ZM396.23,243.615h59.112v16.372l-33.118,47.989h33.118v16.996h-59.112v-16.371l33.118-47.99h-33.118v-16.996h0ZM356.114,307.976h30.493v16.996h-53.613v-81.357h23.12v64.361ZM251.887,243.615l-18.371,81.357h-26.869l-9.998-58.237h-.5l-10.122,58.237h-28.494l-18.371-81.357h22.745l10.998,58.862h.5l10.872-58.862h25.869l10.873,58.862h.5l10.997-58.862h19.371Z"/>
          </g>
        </g>
      </g>
    </g>
  </g>
</svg>